<svg width="860" height="560" viewBox="0 0 860 560" fill="none" xmlns="http://www.w3.org/2000/svg">
  <rect width="860" height="560" rx="40" fill="#FFF7EB"/>
  <rect x="82" y="104" width="696" height="376" rx="24" fill="#E7D1AA"/>
  <rect x="120" y="146" width="620" height="84" rx="18" fill="#7E2516"/>
  <text x="430" y="201" text-anchor="middle" fill="#FFF2E2" font-size="64" font-family="Georgia, serif" font-weight="700">MicoBet</text>
  <rect x="132" y="256" width="146" height="118" rx="16" fill="#FFF4DB"/>
  <rect x="356" y="256" width="146" height="118" rx="16" fill="#FFF4DB"/>
  <rect x="580" y="256" width="146" height="118" rx="16" fill="#FFF4DB"/>
  <rect x="328" y="306" width="204" height="174" rx="18" fill="#8B4C26"/>
  <rect x="388" y="332" width="84" height="148" rx="16" fill="#FFF7EB"/>
  <circle cx="678" cy="168" r="32" fill="#E0A63B"/>
  <circle cx="678" cy="168" r="14" fill="#FFF7EB"/>
  <path d="M650 434H210C171 434 140 464 140 503H720C720 464 689 434 650 434Z" fill="#C38A4B"/>
  <path d="M192 434H272L324 503H244L192 434Z" fill="#AA7238"/>
  <path d="M668 434H588L536 503H616L668 434Z" fill="#AA7238"/>
  <text x="205" y="318" text-anchor="middle" fill="#7C3B1D" font-size="28" font-family="Trebuchet MS, sans-serif" font-weight="700">Bonus</text>
  <text x="429" y="318" text-anchor="middle" fill="#7C3B1D" font-size="28" font-family="Trebuchet MS, sans-serif" font-weight="700">Sorte</text>
  <text x="653" y="318" text-anchor="middle" fill="#7C3B1D" font-size="28" font-family="Trebuchet MS, sans-serif" font-weight="700">Vitrine</text>
</svg>
