<svg width="860" height="560" viewBox="0 0 860 560" fill="none" xmlns="http://www.w3.org/2000/svg">
  <rect width="860" height="560" rx="40" fill="#FFF8EE"/>
  <circle cx="430" cy="280" r="166" fill="#E9D8BA"/>
  <circle cx="430" cy="280" r="114" fill="#FFF7EB" stroke="#B34324" stroke-width="32"/>
  <path d="M430 134C477 134 518 153 549 184L510 223C489 202 461 190 430 190V134Z" fill="#B34324"/>
  <path d="M576 280C576 327 557 368 526 399L487 360C508 339 520 311 520 280H576Z" fill="#E0A63B"/>
  <path d="M430 426C383 426 342 407 311 376L350 337C371 358 399 370 430 370V426Z" fill="#B34324"/>
  <path d="M284 280C284 233 303 192 334 161L373 200C352 221 340 249 340 280H284Z" fill="#E0A63B"/>
  <rect x="164" y="122" width="204" height="120" rx="26" fill="#FFF4DB"/>
  <rect x="490" y="330" width="204" height="120" rx="26" fill="#FFF4DB"/>
  <path d="M244 242L219 279V242H244Z" fill="#FFF4DB"/>
  <path d="M570 330L545 293V330H570Z" fill="#FFF4DB"/>
  <circle cx="220" cy="182" r="16" fill="#B34324"/>
  <circle cx="268" cy="182" r="16" fill="#E0A63B"/>
  <circle cx="316" cy="182" r="16" fill="#B34324"/>
  <rect x="524" y="364" width="136" height="20" rx="10" fill="#B34324"/>
  <rect x="524" y="398" width="102" height="20" rx="10" fill="#E0A63B"/>
  <path d="M122 444H738" stroke="#C8A16F" stroke-width="18" stroke-linecap="round"/>
</svg>
